# xmcd
#
# Track frame offsets:
#	151
#	11806
#	24956
#	42120
#	55562
#	71187
#	88636
#	99951
#	115946
#	128751
#	147695
#	159325
#	170623
#	184243
#	199725
#	213614
#	227562
#	239407
#	253268
#	264157
#
# Disc length: 3770 seconds
#
# Revision: 1
# Processed by: cddbd v1.5.2PL0 Copyright (c) Steve Scherf et al.
# Submitted via: audiograbber 1.83.01
#
DISCID=180eb814
DTITLE=Tom Grant and Terri Williams - I´m Country After All Tom Grant and Terri Wil
DTITLE=liams
DYEAR=1999
DGENRE=Country
TTITLE0=I´m Country After All
TTITLE1=I Feel Your Pain
TTITLE2=Abaleen
TTITLE3=Fish Or Cut Bait
TTITLE4=Johnny´s Fool
TTITLE5=Help Me Look
TTITLE6=Oh Lord Hear My Prayer
TTITLE7=Quiet Chance
TTITLE8=Hand Tough
TTITLE9=Your Best Freind
TTITLE10=Where Are Wee Going
TTITLE11=Christmas Bells And Holly
TTITLE12=I´m The Last Of The Country Girls
TTITLE13=Love Made A Promise To My Heart Tonight
TTITLE14=I´m Not The One
TTITLE15=You´re My Lover, You´re My Best Freind
TTITLE16=Me God And You
TTITLE17=The Cool Clear Dawn
TTITLE18=What Joy Awaits Me There
TTITLE19=Something Special
EXTD=
EXTT0=
EXTT1=
EXTT2=
EXTT3=
EXTT4=
EXTT5=
EXTT6=
EXTT7=
EXTT8=
EXTT9=
EXTT10=
EXTT11=
EXTT12=
EXTT13=
EXTT14=
EXTT15=
EXTT16=
EXTT17=
EXTT18=
EXTT19=
PLAYORDER=
